<svg xmlns="http://www.w3.org/2000/svg" width="1280" height="720" viewBox="0 0 1280 720" role="img" aria-labelledby="title desc">
  <title id="title">Dashboard screenshot placeholder</title>
  <desc id="desc">Placeholder for the Corporate Event Intelligence Engine dashboard screenshot.</desc>
  <rect width="1280" height="720" fill="#f6f3ee"/>
  <rect x="72" y="64" width="1136" height="176" rx="8" fill="#183d64"/>
  <rect x="104" y="96" width="420" height="22" rx="4" fill="#f3c879"/>
  <rect x="104" y="136" width="690" height="48" rx="5" fill="#ffffff" opacity="0.92"/>
  <rect x="104" y="200" width="560" height="18" rx="4" fill="#ffffff" opacity="0.68"/>
  <rect x="830" y="92" width="330" height="116" rx="8" fill="#2f6f5e"/>
  <rect x="72" y="276" width="720" height="324" rx="8" fill="#ffffff" stroke="#d7dce3"/>
  <rect x="104" y="312" width="240" height="22" rx="4" fill="#18202b"/>
  <rect x="104" y="366" width="640" height="54" rx="8" fill="#eef3fb" stroke="#cfdbed"/>
  <rect x="104" y="438" width="640" height="54" rx="8" fill="#eef3fb" stroke="#cfdbed"/>
  <rect x="104" y="510" width="640" height="54" rx="8" fill="#eef3fb" stroke="#cfdbed"/>
  <rect x="824" y="276" width="384" height="324" rx="8" fill="#ffffff" stroke="#d7dce3"/>
  <rect x="856" y="312" width="210" height="22" rx="4" fill="#18202b"/>
  <rect x="856" y="366" width="288" height="24" rx="4" fill="#2f6f5e" opacity="0.72"/>
  <rect x="856" y="414" width="300" height="24" rx="4" fill="#2f6f5e" opacity="0.56"/>
  <rect x="856" y="462" width="268" height="24" rx="4" fill="#2f6f5e" opacity="0.42"/>
  <text x="640" y="664" text-anchor="middle" font-family="Inter, Arial, sans-serif" font-size="24" font-weight="700" fill="#5d6877">Replace with verified dashboard screenshot</text>
</svg>
